<svg version="1" xmlns="http://www.w3.org/2000/svg" width="666.667" height="666.667" viewBox="0 0 500.000000 500.000000"><path d="M236 106.6c-63 8-115 53.7-129 113.4-1.2 5.2-2.5 10.6-2.9 11.9-.5 1.8-3.9 4.4-11.4 9-52.7 32.4-75.5 63.5-65.6 89.6 1.6 4.4 3.8 7.6 8.3 12 8.6 8.5 20.1 13.7 38.1 17 11.1 2.1 47 3.1 60.4 1.7l9.5-1 6.7 6c16.7 15 34.1 25.4 53.6 32.2 34.4 11.9 73.3 10.6 107.2-3.5 37.1-15.3 66.8-45.9 82.1-84.3 3.1-7.9 8-26 8-29.6 0-1.5 1.7-3.1 6.1-5.8 59.3-36.1 82.8-67.6 70.9-94.9-4.1-9.5-15.5-18.5-30-23.5-15.1-5.2-45.9-7.8-71.4-5.9l-14.8 1-7.3-6.5c-20.3-18.5-44-30.6-71-36.5-8.8-2-38.8-3.4-47.5-2.3zm35.7 30.9c44.5 7.2 80.8 38.2 95.3 81.3 3.3 9.8 6 25.3 6 34.4 0 6.7.5 6.3-20.3 15.9-51.1 23.7-100.6 40.1-155.7 51.9-13.1 2.8-36.9 7-39.6 7-2.9 0-14.4-21.3-18.7-34.5-7.8-23.8-7.6-52.2.4-76 18.7-55 75.4-89.3 132.6-80zM417.8 182c17.9 1.9 29.9 5.9 32.1 10.7 2.3 5-4.5 15.2-18.7 27.7-8.4 7.4-27 21.1-27.7 20.4-.3-.2-1.2-4.5-2-9.4-.9-4.9-2.3-11.6-3.1-14.9-1.9-7.3-8.6-24.4-12-30.4-1.3-2.4-2.4-4.5-2.4-4.7 0-.8 24.6-.3 33.8.6zm-314.3 93.7c2 14.8 8.2 34.8 14.9 48.2 2 3.9 3.6 7.4 3.6 7.7 0 1-33.3-.3-41-1.6-10.2-1.7-20.8-5.1-23.5-7.6C56 321 55 319 55 317.2c0-5.6 8.7-16.6 22-27.7 8.1-6.7 24.1-18.5 25.2-18.5.4 0 1 2.1 1.3 4.7zm261.4 23.9c-2.5 6.7-11.4 22.5-16 28.6-18.6 24.8-46.4 41.5-77.8 46.9-18.6 3.3-43.5.4-62.4-7.1-9.1-3.7-23-11-24.1-12.8-.3-.5 3.9-1.7 9.2-2.7 49.9-9.3 110.8-28.7 161.7-51.4 5-2.2 9.3-4 9.7-4 .4-.1.3 1.1-.3 2.5z"/><path d="M249.7 154.9c-4.4 1-9.5 5.7-10.8 10-1.6 5.3-.4 10.4 3.2 14.6 3.3 3.7 5.8 4.6 17.6 6.5 8.9 1.4 12.9.4 17.2-4.5 6.6-7.5 4.7-18.6-3.9-23-5-2.6-18.5-4.7-23.3-3.6zM300.5 177.4c-4.2 1.8-8.3 6.9-9.1 11.2-1.1 6 1 10.7 7.6 16.6 9 8.1 15.8 17.2 21.2 28.5 2.8 5.8 6.2 11.3 7.8 12.7 6.2 5.2 16 4 21.2-2.5 4.4-5.5 4.6-10 .9-19.4-5.4-13.5-12.6-24.3-23.9-35.9-11.5-11.8-17.9-14.6-25.7-11.2z"/></svg>